<?xml version="1.0" encoding="UTF-8"?><svg id="Sketch" xmlns="http://www.w3.org/2000/svg" viewBox="0 0 438.63 97.35"><defs><style>.cls-1{fill:#fff;stroke-width:0px;}</style></defs><path class="cls-1" d="m78.37-.1v40.77c0,8.41.09,16.08.44,23.75L49.3-.1h-17.19L-.65,96.33h17.64l13.65-43.06h-.04l.58-1.7,9.49-29.94,33.86,74.69h20.07V-.1h-16.23Z"/><path class="cls-1" d="m160.71,66.48h-15.56v-2.21c1.83-.47,3.76-1.17,3.76-3.24,0-.47-.09-1.03-.33-1.64l-2.07-5.59h-10.86l-1.74,4.89c-.28.8-.42,1.46-.42,2.02,0,2.26,1.93,3.05,3.95,3.62v2.16h-13.16v-2.26c2.02-.42,4.51-1.41,6.02-5.59l10.62-28.86h3.52l11.23,29.75c1.18,3.2,3.38,4.37,5.03,4.7v2.26Zm-15.37-15.74l-4.23-11.28-4.28,11.28h8.51Z"/><path class="cls-1" d="m175.18,66.48h-12.45v-1.97c1.6-.42,3.53-.99,3.53-3.48v-7.89c0-2.77-1.36-3.34-2.02-3.43l-1.46-.19v-2.07c1.17-.42,2.4-1.03,3.57-1.64,1.41-.75,2.68-1.6,3.52-2.26h2.35v17.81c0,2.44,1.69,2.87,2.96,3.2v1.93Zm-5.97-29.8c-1.88,0-3.43-1.55-3.43-3.43s1.55-3.43,3.43-3.43,3.43,1.55,3.43,3.43-1.55,3.43-3.43,3.43Z"/><path class="cls-1" d="m204.04,66.48h-8.93v-1.03c-1.41.99-3.24,1.6-5.55,1.6-6.16,0-11.37-3.99-11.37-11.42s4.32-12.78,11.66-12.78c2.11,0,3.85.42,5.26,1.13v-4.61c0-2.77-1.36-3.34-2.07-3.43l-1.41-.14v-2.07c1.13-.47,2.4-1.03,3.57-1.69,1.41-.75,2.68-1.55,3.52-2.26h2.3v31.58c0,2.44,1.74,2.87,3.01,3.2v1.93Zm-8.93-18.99c-.75-1.41-1.97-2.4-3.81-2.4-4.51,0-6.72,4.46-6.72,10.25s2.96,9.21,5.92,9.21c1.74,0,3.43-.99,4.61-2.82v-14.24Z"/><path class="cls-1" d="m229.84,65.45c-.75.85-2.21,1.5-3.95,1.5-1.97,0-3.57-.52-4.7-1.88-1.17.99-3.34,2.3-7.1,2.3-4.42,0-8.04-2.07-8.04-6.25,0-5.64,6.63-7.24,9.73-8.13,1.74-.52,3.43-1.03,4.7-1.46v-2.68c0-2.54-1.41-3.99-3.15-3.99-1.6,0-2.73,1.27-3.38,2.82-.75,1.69-1.5,2.77-3.1,2.77-1.69,0-2.58-1.03-2.58-2.49,0-2.54,3.48-5.31,9.02-5.31s9.17,2.68,9.17,6.96v12.31c0,2.11,2.44,2.87,3.38,2.44v1.08Zm-9.35-11.04c-3.34.14-8.37,2.35-8.37,5.92,0,2.68,1.46,4.14,3.85,4.14s4.51-1.74,4.51-4.18v-5.87Z"/><path class="cls-1" d="m258.75,66.48h-11.7v-1.97c1.65-.56,3.01-1.08,3.01-3.43v-10.81c0-2.68-1.41-4.09-3.9-4.09-1.6,0-3.38.99-4.79,2.07v13.02c0,2.44,1.69,2.87,2.96,3.2v2.02h-12.27v-2.07c1.6-.42,3.53-.99,3.53-3.48v-7.85c0-2.77-1.36-3.34-2.02-3.43l-1.46-.14v-2.07c1.17-.42,2.4-1.03,3.57-1.64,1.41-.75,2.68-1.6,3.53-2.26h2.16v1.83c2.21-1.55,4.65-2.49,7.43-2.49,4.75,0,7.05,2.44,7.05,7.05v10.67c0,2.68,1.6,3.48,2.91,3.81v2.07Z"/><path class="cls-1" d="m313.83,31.94c-1.69.38-4.84,1.27-4.84,3.95v30.59h-3.52l-20.35-32v25.33c0,3.24,2.49,3.95,4.51,4.42v2.26h-12.92v-2.3c2.07-.42,4.7-1.55,4.7-4.18v-23.97c0-2.77-2.63-3.62-4.65-4v-2.21h13.39l15.23,23.83v-17.58c0-2.58-3.01-3.81-4.18-4.04v-2.21h12.64v2.11Z"/><path class="cls-1" d="m336.67,59.34c-1.74,4.28-4.32,7.94-10.01,7.94-8.27,0-11.94-6.11-11.94-12.22s4.18-12.41,11.56-12.41,10.29,5.08,10.29,8.74c0,.71-.05.94-.52.94h-14.95c-.05.8-.09,1.6-.09,2.49,0,6.49,2.4,9.73,6.02,9.73,3.38,0,5.73-2.68,7.05-6.2l2.58.99Zm-7.05-9.21c0-1.36-.42-4.94-3.57-4.94-2.4,0-3.95,1.5-4.65,4.94h8.22Z"/><path class="cls-1" d="m351.34,67.42c-3.71,0-5.55-1.22-6.11-1.65l-1.27,1.08h-2.21l-2.77-6.91,2.16-.99c1.13,1.64,4.75,5.78,9.82,5.78,3.15,0,5.41-1.5,5.41-3.34,0-3.1-4.79-3.62-9.26-4.79-3.85-1.08-7.43-2.63-7.43-6.91s4.18-6.96,9.31-6.96c2.4,0,4.37.99,5.12,1.41l1.46-1.18h1.6l2.07,5.92-2.16,1.03c-1.88-2.58-4.42-4.56-7.71-4.56-2.58,0-4.56.89-4.56,2.54,0,2.63,3.71,3.24,7.52,4.18,4.18.99,8.55,2.4,8.55,7.28s-4.51,8.04-9.54,8.04Z"/><path class="cls-1" d="m376.15,67.38c-2.35,0-4.79-.8-6.44-2.3l-1.74,1.41h-2.91v-27.12c0-2.77-1.36-3.34-2.07-3.43l-1.41-.14v-2.07c1.17-.47,2.4-1.03,3.57-1.69,1.41-.75,2.68-1.55,3.52-2.26h2.3v15.13c1.5-1.36,3.43-2.16,6.16-2.16,5.64,0,10.39,3.57,10.39,11.19s-4.18,13.44-11.37,13.44Zm-.05-21.95c-2.35,0-4.14,1.55-5.12,3.1v13.54c.99,1.46,2.35,2.58,4.32,2.58,3.34,0,6.3-2.96,6.3-10.01s-2.77-9.21-5.5-9.21Z"/><path class="cls-1" d="m403.08,66.48h-12.45v-1.97c1.6-.42,3.53-.99,3.53-3.48v-7.89c0-2.77-1.36-3.34-2.02-3.43l-1.46-.19v-2.07c1.18-.42,2.4-1.03,3.57-1.64,1.41-.75,2.68-1.6,3.52-2.26h2.35v17.81c0,2.44,1.69,2.87,2.96,3.2v1.93Zm-5.97-29.8c-1.88,0-3.43-1.55-3.43-3.43s1.55-3.43,3.43-3.43,3.43,1.55,3.43,3.43-1.55,3.43-3.43,3.43Z"/><path class="cls-1" d="m420.43,66.34c-.8.47-2.54.94-4.23.94-4.23,0-7.57-1.88-7.57-7.24v-14.38h-2.96v-1.27c1.83-1.03,3.15-2.16,4.28-3.76.99-1.41,1.83-3.1,2.73-5.4h1.88v8.27h5.78v2.16h-5.78v14.8c0,3.24,1.65,4.28,3.76,4.28,1.17,0,1.88-.47,2.12-.66v2.26Z"/><path class="cls-1" d="m437.39,66.34c-.8.47-2.54.94-4.23.94-4.23,0-7.57-1.88-7.57-7.24v-14.38h-2.96v-1.27c1.83-1.03,3.15-2.16,4.28-3.76.99-1.41,1.83-3.1,2.73-5.4h1.88v8.27h5.78v2.16h-5.78v14.8c0,3.24,1.65,4.28,3.76,4.28,1.17,0,1.88-.47,2.12-.66v2.26Z"/></svg>